<svg width="1440" height="666" viewBox="0 0 1440 666" fill="none" xmlns="http://www.w3.org/2000/svg">
<g clip-path="url(#clip0_16_19733)">
<g filter="url(#filter0_dd_16_19733)">
<g clip-path="url(#clip1_16_19733)">
<rect x="1062.17" y="440.089" width="330.674" height="103.331" rx="12.4" transform="rotate(9.99999 1062.17 440.089)" fill="white"/>
<g clip-path="url(#clip2_16_19733)">
<g clip-path="url(#clip3_16_19733)">
<g clip-path="url(#clip4_16_19733)">
<path d="M1258.82 425.41L1226.26 419.669L1220.52 452.227L1253.08 457.968L1258.82 425.41Z" fill="#171717"/>
<path fill-rule="evenodd" clip-rule="evenodd" d="M1241.1 430.679L1247.46 448.166L1229.15 444.936L1241.1 430.679Z" fill="white"/>
</g>
</g>
<rect x="1269.24" y="437.738" width="66.3378" height="12.3996" rx="6.19979" transform="rotate(9.99999 1269.24 437.738)" fill="#F1F4FF"/>
</g>
<rect x="1076.39" y="460.399" width="70.2574" height="70.2591" rx="35.1287" transform="rotate(9.99999 1076.39 460.399)" fill="#F1F4FF"/>
<rect x="1181.18" y="494.649" width="132.26" height="12.3996" rx="6.19979" transform="rotate(9.99999 1181.18 494.649)" fill="#F1F4FF"/>
<rect x="1176.87" y="519.07" width="99.2044" height="12.3978" rx="6.19892" transform="rotate(9.99999 1176.87 519.07)" fill="#F1F4FF"/>
<g clip-path="url(#clip5_16_19733)">
<rect x="1328.84" y="540.66" width="33.0638" height="33.0621" rx="16.53" transform="rotate(9.99999 1328.84 540.66)" fill="#F1F4FF"/>
<g clip-path="url(#clip6_16_19733)">
<g clip-path="url(#clip7_16_19733)">
<path d="M1361.4 546.4L1328.84 540.659L1323.1 573.217L1355.66 578.958L1361.4 546.4Z" fill="#FF7A59"/>
<path fill-rule="evenodd" clip-rule="evenodd" d="M1344.42 564.557C1343.16 564.335 1342.32 563.143 1342.54 561.895C1342.76 560.647 1343.96 559.816 1345.22 560.038C1346.48 560.261 1347.33 561.453 1347.11 562.7C1346.89 563.948 1345.69 564.779 1344.42 564.557ZM1346.27 558.069L1346.63 556.059C1347.2 555.904 1347.67 555.439 1347.77 554.823L1347.78 554.777C1347.93 553.927 1347.35 553.107 1346.49 552.956L1346.45 552.948C1345.59 552.796 1344.76 553.368 1344.61 554.218L1344.6 554.264C1344.5 554.88 1344.77 555.477 1345.26 555.818L1344.91 557.828C1344.1 557.809 1343.32 558.004 1342.64 558.373L1337.82 553.097C1337.88 552.964 1337.93 552.825 1337.96 552.673C1338.13 551.711 1337.48 550.791 1336.51 550.618C1335.53 550.445 1334.61 551.085 1334.44 552.048C1334.27 553.01 1334.92 553.931 1335.89 554.103C1336.21 554.16 1336.51 554.122 1336.8 554.023L1341.54 559.213C1340.95 559.828 1340.53 560.614 1340.37 561.513C1340.2 562.453 1340.35 563.376 1340.73 564.182L1338.77 565.538C1338.65 565.476 1338.52 565.424 1338.37 565.399C1337.57 565.258 1336.81 565.785 1336.67 566.576C1336.53 567.367 1337.07 568.123 1337.87 568.264C1338.67 568.405 1339.43 567.878 1339.57 567.086C1339.59 566.943 1339.59 566.803 1339.57 566.666L1341.51 565.324C1342.16 566.021 1343.03 566.526 1344.05 566.705C1346.51 567.138 1348.85 565.517 1349.28 563.083C1349.66 560.88 1348.35 558.771 1346.27 558.069Z" fill="white"/>
</g>
</g>
</g>
</g>
<rect x="1062.58" y="440.669" width="329.674" height="102.331" rx="11.9" transform="rotate(9.99999 1062.58 440.669)" stroke="#F1F4FF"/>
</g>
<g filter="url(#filter1_dd_16_19733)">
<g clip-path="url(#clip8_16_19733)">
<rect x="104.55" y="105.221" width="165.339" height="351.348" rx="12.4" transform="rotate(8 104.55 105.221)" fill="white"/>
<g clip-path="url(#clip9_16_19733)">
<g clip-path="url(#clip10_16_19733)">
<g clip-path="url(#clip11_16_19733)">
<path d="M300.569 83.6924L267.83 79.0913L263.229 111.83L295.968 116.431L300.569 83.6924Z" fill="#1ED760"/>
</g>
</g>
</g>
<g clip-path="url(#clip12_16_19733)">
<rect x="119.47" y="125.021" width="130.277" height="33.0616" rx="16.53" transform="rotate(8 119.47 125.021)" fill="#F1F4FF"/>
<g clip-path="url(#clip13_16_19733)">
<g clip-path="url(#clip14_16_19733)">
<path d="M200.343 136.387L167.604 131.786L163.003 164.524L195.742 169.125L200.343 136.387Z" fill="#0057FF"/>
<path d="M187.917 152.197C187.895 152.352 187.814 152.492 187.69 152.586C187.566 152.68 187.41 152.721 187.257 152.699C187.103 152.678 186.965 152.595 186.872 152.471C186.778 152.346 186.738 152.189 186.76 152.035L187.492 146.826C187.514 146.672 187.596 146.532 187.719 146.438C187.843 146.344 187.999 146.303 188.152 146.325C188.306 146.346 188.444 146.428 188.538 146.553C188.631 146.677 188.671 146.834 188.649 146.989L187.917 152.197ZM187.209 155.778C187.122 155.844 184.716 157.349 180.772 156.794C176.828 156.24 174.944 154.143 174.864 154.053C174.813 153.996 174.775 153.93 174.75 153.858C174.725 153.786 174.714 153.71 174.719 153.634C174.723 153.558 174.742 153.483 174.775 153.415C174.808 153.346 174.854 153.285 174.911 153.234C175.027 153.132 175.179 153.08 175.332 153.089C175.486 153.099 175.63 153.169 175.732 153.286C175.762 153.314 177.463 155.155 180.929 155.642C184.395 156.129 186.554 154.821 186.575 154.809C186.706 154.727 186.864 154.7 187.015 154.733C187.166 154.766 187.298 154.857 187.384 154.987C187.465 155.115 187.493 155.271 187.461 155.42C187.429 155.569 187.34 155.7 187.213 155.784L187.209 155.778ZM175.899 145.197C175.929 145.043 176.019 144.908 176.148 144.82C176.277 144.732 176.436 144.699 176.589 144.729C176.73 144.757 176.856 144.837 176.943 144.954C177.029 145.07 177.069 145.215 177.056 145.36L176.325 150.558C176.303 150.713 176.222 150.853 176.098 150.947C175.974 151.041 175.818 151.082 175.665 151.06C175.511 151.039 175.373 150.957 175.28 150.832C175.187 150.707 175.146 150.55 175.168 150.396L175.899 145.197ZM178.963 144.448C178.994 144.295 179.083 144.159 179.213 144.071C179.342 143.984 179.5 143.951 179.653 143.98C179.795 144.009 179.921 144.089 180.007 144.205C180.093 144.322 180.134 144.466 180.12 144.611L179.037 152.32C179.015 152.475 178.933 152.615 178.809 152.709C178.686 152.803 178.53 152.843 178.376 152.822C178.223 152.8 178.084 152.718 177.991 152.594C177.898 152.469 177.858 152.312 177.88 152.158L178.963 144.448ZM181.92 144.569C181.942 144.415 182.024 144.275 182.148 144.181C182.271 144.087 182.427 144.046 182.58 144.068C182.734 144.089 182.872 144.171 182.966 144.296C183.059 144.42 183.099 144.577 183.077 144.732L181.899 153.116C181.877 153.27 181.795 153.41 181.671 153.504C181.548 153.598 181.392 153.639 181.238 153.617C181.085 153.596 180.947 153.514 180.853 153.389C180.76 153.264 180.72 153.108 180.742 152.953L181.92 144.569ZM184.748 145.261C184.77 145.107 184.851 144.967 184.975 144.873C185.099 144.779 185.255 144.738 185.408 144.76C185.562 144.781 185.7 144.863 185.793 144.988C185.886 145.113 185.927 145.269 185.905 145.424L184.821 153.133C184.8 153.288 184.718 153.428 184.594 153.522C184.47 153.616 184.314 153.656 184.161 153.635C184.008 153.613 183.869 153.531 183.776 153.407C183.683 153.282 183.643 153.125 183.665 152.971L184.748 145.261ZM189.416 142.675L176.374 140.842C176.091 140.8 175.801 140.815 175.523 140.886C175.244 140.957 174.982 141.083 174.752 141.256C174.522 141.429 174.327 141.646 174.18 141.894C174.033 142.143 173.936 142.418 173.894 142.704L172.066 155.713C172.027 156 172.045 156.291 172.118 156.571C172.191 156.85 172.317 157.113 172.491 157.342C172.665 157.572 172.882 157.765 173.13 157.91C173.378 158.055 173.652 158.149 173.937 158.187L186.978 160.02C187.262 160.062 187.551 160.047 187.829 159.976C188.107 159.906 188.369 159.78 188.599 159.608C188.829 159.435 189.023 159.219 189.171 158.971C189.318 158.723 189.416 158.448 189.458 158.163L191.287 145.149C191.326 144.862 191.308 144.572 191.236 144.292C191.163 144.013 191.036 143.751 190.863 143.522C190.69 143.292 190.473 143.099 190.226 142.954C189.978 142.809 189.705 142.714 189.421 142.675" fill="white"/>
</g>
</g>
</g>
<rect x="111.988" y="178.259" width="130.277" height="12.3914" rx="6.19568" transform="rotate(8 111.988 178.259)" fill="#F1F4FF"/>
<rect x="108.538" y="202.809" width="99.2044" height="12.4013" rx="6.20063" transform="rotate(8 108.538 202.809)" fill="#F1F4FF"/>
<rect x="103.931" y="235.588" width="58.9446" height="62.0021" rx="12.4" transform="rotate(8 103.931 235.588)" fill="#F1F4FF"/>
<rect x="174.581" y="245.519" width="58.9333" height="62.0035" rx="12.4" transform="rotate(8 174.581 245.519)" fill="#F1F4FF"/>
<rect x="93.5809" y="309.269" width="58.9333" height="61.9936" rx="12.4" transform="rotate(8 93.5809 309.269)" fill="#F1F4FF"/>
<rect x="164.221" y="319.198" width="58.9432" height="61.9936" rx="12.4" transform="rotate(8 164.221 319.198)" fill="#F1F4FF"/>
<rect x="80.053" y="405.49" width="130.278" height="33.0616" rx="16.5308" transform="rotate(8 80.053 405.49)" fill="#95C7F3"/>
</g>
<rect x="104.976" y="105.786" width="164.339" height="350.348" rx="11.9" transform="rotate(8 104.976 105.786)" stroke="#F1F4FF"/>
</g>
<g filter="url(#filter2_dd_16_19733)">
<g clip-path="url(#clip15_16_19733)">
<rect x="1102.66" y="111.334" width="289.335" height="289.343" rx="12.4" transform="rotate(-14 1102.66 111.334)" fill="white"/>
<g clip-path="url(#clip16_16_19733)">
<rect x="1154.52" y="58.9668" width="66.5302" height="12.3984" rx="6.19921" transform="rotate(-14 1154.52 58.9668)" fill="#F1F4FF"/>
<g clip-path="url(#clip17_16_19733)">
<g clip-path="url(#clip18_16_19733)">
<path d="M1276.34 17.9459L1244.26 25.9438L1252.26 58.0218L1284.34 50.0239L1276.34 17.9459Z" fill="#F0F0F0"/>
<path fill-rule="evenodd" clip-rule="evenodd" d="M1261.8 30.3129C1262.61 30.1116 1263.46 30.3936 1263.99 31.0367L1268.21 36.1723C1268.21 36.1723 1268.21 36.1752 1268.21 36.1759C1268.21 36.1759 1268.21 36.173 1268.21 36.1723C1268.66 35.2147 1268.9 34.1606 1268.85 33.105C1268.79 31.9136 1269.71 30.906 1270.9 30.8472C1271.19 30.8338 1271.47 30.8764 1271.74 30.9724C1272 31.0685 1272.25 31.2162 1272.46 31.407C1272.67 31.5979 1272.84 31.8282 1272.96 32.0847C1273.08 32.3413 1273.15 32.6191 1273.16 32.9023C1273.27 35.3425 1272.49 37.7433 1271.12 39.7072L1272.65 41.5709C1273.5 42.604 1273.27 44.1829 1272.13 44.8587L1272.09 44.8795C1271.92 44.977 1271.74 45.0501 1271.56 45.096C1270.77 45.2915 1269.91 45.0361 1269.37 44.3729L1268 42.7168L1265.23 39.3436L1263.87 37.6876C1263.84 37.6517 1263.8 37.625 1263.76 37.6105C1263.71 37.5959 1263.67 37.5941 1263.62 37.6054C1263.57 37.6166 1263.53 37.6404 1263.5 37.674C1263.47 37.7075 1263.45 37.7495 1263.44 37.795L1263 39.9419C1261.54 39.9933 1259.92 39.4811 1258.87 38.6302L1260.21 31.985C1260.29 31.5838 1260.48 31.2134 1260.76 30.9171C1261.04 30.6209 1261.4 30.4113 1261.8 30.3129ZM1255.17 37.4516C1256.14 36.7506 1257.49 36.9633 1258.19 37.9296C1258.37 38.1803 1258.6 38.4131 1258.86 38.6251L1258.86 38.6273L1258.99 38.7243C1259 38.7337 1259.01 38.7401 1259.02 38.7495L1259.06 38.7746C1259.07 38.7854 1259.09 38.7998 1259.11 38.8106C1259.11 38.8127 1259.12 38.8149 1259.12 38.8178L1259.11 38.8106C1259.18 38.863 1259.26 38.9112 1259.33 38.9594C1259.34 38.9615 1259.34 38.9644 1259.34 38.9636C1259.59 39.1211 1259.86 39.2613 1260.14 39.3828C1260.28 39.4411 1260.41 39.4928 1260.55 39.5439C1260.56 39.5468 1260.57 39.5533 1260.58 39.5561C1261.36 39.8273 1262.2 39.9651 1263 39.9368C1263.34 39.9256 1263.67 39.8827 1263.98 39.8075L1264.02 39.7974C1264.44 39.6936 1264.84 39.538 1265.23 39.3386L1268 42.7118C1267.1 43.2872 1266.11 43.7253 1265.07 43.986C1264.13 44.221 1263.13 44.295 1262.13 44.2298L1261.72 46.2768C1261.66 46.5627 1261.54 46.8339 1261.38 47.074C1261.21 47.3141 1261 47.5182 1260.75 47.6738C1260.51 47.8294 1260.23 47.9334 1259.94 47.9795C1259.66 48.0256 1259.36 48.0127 1259.08 47.9418C1257.95 47.6596 1257.27 46.498 1257.5 45.3542L1257.95 43.1112C1256.65 42.4691 1255.51 41.5773 1254.72 40.5003L1254.69 40.4666C1254 39.5024 1254.21 38.1525 1255.17 37.4516Z" fill="black"/>
<path fill-rule="evenodd" clip-rule="evenodd" d="M1261.8 30.3129C1262.61 30.1116 1263.46 30.3936 1263.99 31.0367L1268.21 36.1723C1268.21 36.1723 1268.21 36.1752 1268.21 36.1759C1268.21 36.1759 1268.21 36.173 1268.21 36.1723C1268.66 35.2147 1268.9 34.1606 1268.85 33.105C1268.79 31.9136 1269.71 30.906 1270.9 30.8472C1271.19 30.8338 1271.47 30.8764 1271.74 30.9724C1272 31.0685 1272.25 31.2162 1272.46 31.407C1272.67 31.5979 1272.84 31.8282 1272.96 32.0847C1273.08 32.3413 1273.15 32.6191 1273.16 32.9023C1273.27 35.3425 1272.49 37.7433 1271.12 39.7072L1272.65 41.5709C1273.5 42.604 1273.27 44.1829 1272.13 44.8587L1272.09 44.8795C1271.92 44.977 1271.74 45.0501 1271.56 45.096C1270.77 45.2915 1269.91 45.0361 1269.37 44.3729L1268 42.7168L1265.23 39.3436L1263.87 37.6876C1263.84 37.6517 1263.8 37.625 1263.76 37.6105C1263.71 37.5959 1263.67 37.5941 1263.62 37.6054C1263.57 37.6166 1263.53 37.6404 1263.5 37.674C1263.47 37.7075 1263.45 37.7495 1263.44 37.795L1263 39.9419C1261.54 39.9933 1259.92 39.4811 1258.87 38.6302L1260.21 31.985C1260.29 31.5838 1260.48 31.2134 1260.76 30.9171C1261.04 30.6209 1261.4 30.4113 1261.8 30.3129ZM1255.17 37.4516C1256.14 36.7506 1257.49 36.9633 1258.19 37.9296C1258.37 38.1803 1258.6 38.4131 1258.86 38.6251L1258.86 38.6273L1258.99 38.7243C1259 38.7337 1259.01 38.7401 1259.02 38.7495L1259.06 38.7746C1259.07 38.7854 1259.09 38.7998 1259.11 38.8106C1259.11 38.8127 1259.12 38.8149 1259.12 38.8178L1259.11 38.8106C1259.18 38.863 1259.26 38.9112 1259.33 38.9594C1259.34 38.9615 1259.34 38.9644 1259.34 38.9636C1259.59 39.1211 1259.86 39.2613 1260.14 39.3828C1260.28 39.4411 1260.41 39.4928 1260.55 39.5439C1260.56 39.5468 1260.57 39.5533 1260.58 39.5561C1261.36 39.8273 1262.2 39.9651 1263 39.9368C1263.34 39.9256 1263.67 39.8827 1263.98 39.8075L1264.02 39.7974C1264.44 39.6936 1264.84 39.538 1265.23 39.3386L1268 42.7118C1267.1 43.2872 1266.11 43.7253 1265.07 43.986C1264.13 44.221 1263.13 44.295 1262.13 44.2298L1261.72 46.2768C1261.66 46.5627 1261.54 46.8339 1261.38 47.074C1261.21 47.3141 1261 47.5182 1260.75 47.6738C1260.51 47.8294 1260.23 47.9334 1259.94 47.9795C1259.66 48.0256 1259.36 48.0127 1259.08 47.9418C1257.95 47.6596 1257.27 46.498 1257.5 45.3542L1257.95 43.1112C1256.65 42.4691 1255.51 41.5773 1254.72 40.5003L1254.69 40.4666C1254 39.5024 1254.21 38.1525 1255.17 37.4516Z" fill="white"/>
<path d="M1268.21 36.1723L1263.99 31.0367C1263.46 30.3936 1262.61 30.1116 1261.8 30.3129C1261.4 30.4113 1261.04 30.6209 1260.76 30.9171C1260.48 31.2134 1260.29 31.5838 1260.21 31.985L1258.87 38.6302C1259.92 39.4811 1261.54 39.9933 1263 39.9419L1263.44 37.795C1263.45 37.7495 1263.47 37.7075 1263.5 37.674C1263.53 37.6404 1263.57 37.6166 1263.62 37.6054C1263.67 37.5941 1263.71 37.5959 1263.76 37.6105C1263.8 37.625 1263.84 37.6517 1263.87 37.6876L1265.23 39.3436M1268.21 36.1723C1268.21 36.1723 1268.21 36.1752 1268.21 36.1759C1268.21 36.1759 1268.21 36.173 1268.21 36.1723ZM1268.21 36.1723C1268.66 35.2147 1268.9 34.1606 1268.85 33.105C1268.79 31.9136 1269.71 30.906 1270.9 30.8472C1271.19 30.8338 1271.47 30.8764 1271.74 30.9724C1272 31.0685 1272.25 31.2162 1272.46 31.407C1272.67 31.5979 1272.84 31.8282 1272.96 32.0847C1273.08 32.3413 1273.15 32.6191 1273.16 32.9023C1273.27 35.3425 1272.49 37.7433 1271.12 39.7072L1272.65 41.5709C1273.5 42.604 1273.27 44.1829 1272.13 44.8587L1272.09 44.8795C1271.92 44.977 1271.74 45.0501 1271.56 45.096C1270.77 45.2915 1269.91 45.0361 1269.37 44.3729L1268 42.7168L1265.23 39.3436M1265.23 39.3436L1265.24 39.3422M1259.11 38.8106C1259.09 38.7998 1259.07 38.7854 1259.06 38.7746L1259.02 38.7495C1259.01 38.7401 1259 38.7337 1258.99 38.7243L1258.86 38.6273L1258.86 38.6251C1258.6 38.4131 1258.37 38.1803 1258.19 37.9296C1257.49 36.9633 1256.14 36.7506 1255.17 37.4516C1254.21 38.1525 1254 39.5024 1254.69 40.4666L1254.72 40.5003C1255.51 41.5773 1256.65 42.4691 1257.95 43.1112L1257.5 45.3542C1257.27 46.498 1257.95 47.6596 1259.08 47.9418C1259.36 48.0127 1259.66 48.0256 1259.94 47.9795C1260.23 47.9334 1260.51 47.8294 1260.75 47.6738C1261 47.5182 1261.21 47.3141 1261.38 47.074C1261.54 46.8339 1261.66 46.5627 1261.72 46.2768L1262.13 44.2298C1263.13 44.295 1264.13 44.221 1265.07 43.986C1266.11 43.7253 1267.1 43.2872 1268 42.7118L1265.23 39.3386C1264.84 39.538 1264.44 39.6936 1264.02 39.7974L1263.98 39.8075C1263.67 39.8827 1263.34 39.9256 1263 39.9368C1262.2 39.9651 1261.36 39.8273 1260.58 39.5561C1260.57 39.5533 1260.56 39.5468 1260.55 39.5439C1260.41 39.4928 1260.28 39.4411 1260.14 39.3828C1259.86 39.2613 1259.59 39.1211 1259.34 38.9636C1259.34 38.9644 1259.34 38.9615 1259.33 38.9594C1259.26 38.9112 1259.18 38.863 1259.11 38.8106ZM1259.11 38.8106C1259.11 38.8127 1259.12 38.8149 1259.12 38.8178L1259.11 38.8106Z" stroke="white" stroke-width="2.03405" stroke-linejoin="round"/>
<path fill-rule="evenodd" clip-rule="evenodd" d="M1262.13 44.2291L1263 39.9362C1261.53 39.9877 1259.91 39.4754 1258.86 38.6245L1257.95 43.1106C1259.24 43.7455 1260.69 44.1349 1262.13 44.2291Z" fill="#1A007F"/>
<path fill-rule="evenodd" clip-rule="evenodd" d="M1268.21 36.1718C1267.57 37.5236 1266.51 38.674 1265.23 39.3382L1268 42.7114C1269.21 41.9323 1270.28 40.8989 1271.12 39.7038L1268.21 36.1718Z" fill="#4E000A"/>
<path fill-rule="evenodd" clip-rule="evenodd" d="M1257.95 43.1109L1257.5 45.3539C1257.27 46.4948 1257.95 47.6593 1259.08 47.9415C1260.28 48.2403 1261.47 47.4755 1261.72 46.2765L1262.13 44.2294C1260.68 44.1312 1259.26 43.7513 1257.95 43.1109Z" fill="#1A007F"/>
<path fill-rule="evenodd" clip-rule="evenodd" d="M1265.23 39.3389C1264.84 39.5383 1264.44 39.6938 1264.02 39.7976C1263.7 39.8786 1263.35 39.9251 1263 39.937C1261.53 39.9886 1259.92 39.4763 1258.86 38.6254C1258.6 38.4133 1258.37 38.1805 1258.19 37.9298C1257.49 36.9664 1256.14 36.7537 1255.17 37.4518C1254.21 38.1528 1254 39.5027 1254.69 40.4668C1255.49 41.5624 1256.64 42.4636 1257.95 43.1114C1259.26 43.7521 1260.68 44.1322 1262.13 44.2307C1263.12 44.2967 1264.12 44.2219 1265.06 43.987C1266.11 43.7262 1267.1 43.2881 1268 42.7128L1265.23 39.3389Z" fill="#002DC8"/>
<path fill-rule="evenodd" clip-rule="evenodd" d="M1272.65 41.5686L1271.11 39.7049L1268.21 36.1722L1268.21 36.1759C1268.21 36.1759 1268.21 36.173 1268.21 36.1722L1263.99 31.0367C1263.73 30.7216 1263.38 30.4864 1263 30.3583C1262.61 30.2302 1262.19 30.2145 1261.8 30.3129C1260.99 30.5141 1260.37 31.1629 1260.21 31.9793L1258.86 38.6244C1259.92 39.4753 1261.53 39.9876 1263 39.9361L1263.44 37.7893C1263.48 37.5868 1263.74 37.5223 1263.87 37.6818L1265.23 39.3379L1268 42.7111L1269.36 44.3671C1269.62 44.6829 1269.97 44.9185 1270.35 45.0466C1270.74 45.1746 1271.16 45.1897 1271.56 45.0902C1271.74 45.0436 1271.92 44.9712 1272.09 44.8737C1273.27 44.2116 1273.5 42.6119 1272.65 41.5686Z" fill="#FF536A"/>
<path fill-rule="evenodd" clip-rule="evenodd" d="M1262.13 44.2291L1263 39.9362C1261.53 39.9877 1259.91 39.4754 1258.86 38.6245L1257.95 43.1106C1259.24 43.7455 1260.69 44.1349 1262.13 44.2291Z" fill="#1A007F"/>
<path fill-rule="evenodd" clip-rule="evenodd" d="M1268.21 36.1718C1267.57 37.5236 1266.51 38.674 1265.23 39.3382L1268 42.7114C1269.21 41.9323 1270.28 40.8989 1271.12 39.7038L1268.21 36.1718Z" fill="#4E000A"/>
<path fill-rule="evenodd" clip-rule="evenodd" d="M1257.95 43.1114L1257.5 45.3544C1257.27 46.4953 1257.95 47.6598 1259.08 47.9419C1260.28 48.2407 1261.47 47.476 1261.72 46.277L1262.13 44.2299C1260.68 44.1317 1259.26 43.7518 1257.95 43.1114Z" fill="#1A007F"/>
<path fill-rule="evenodd" clip-rule="evenodd" d="M1265.23 39.3384C1264.84 39.5378 1264.44 39.6933 1264.02 39.7972C1263.7 39.8782 1263.35 39.9246 1263 39.9366C1261.53 39.9881 1259.91 39.4758 1258.86 38.6249C1258.6 38.4129 1258.37 38.1801 1258.19 37.9294C1257.49 36.9659 1256.14 36.7532 1255.17 37.4513C1254.21 38.1523 1254 39.5022 1254.69 40.4663C1255.49 41.5619 1256.63 42.4631 1257.95 43.1109C1259.26 43.7516 1260.68 44.1318 1262.13 44.2302C1263.12 44.2962 1264.12 44.2214 1265.06 43.9865C1266.11 43.7257 1267.1 43.2876 1268 42.7123L1265.23 39.3384Z" fill="#002DC8"/>
<path fill-rule="evenodd" clip-rule="evenodd" d="M1272.65 41.5682L1271.11 39.7044L1268.21 36.1718L1268.21 36.1754C1268.21 36.1754 1268.21 36.1725 1268.21 36.1718L1263.99 31.0362C1263.73 30.7211 1263.38 30.4859 1263 30.3578C1262.61 30.2297 1262.19 30.214 1261.8 30.3124C1260.99 30.5137 1260.37 31.1625 1260.21 31.9788L1258.86 38.6239C1259.92 39.4748 1261.53 39.9871 1263 39.9356L1263.44 37.7888C1263.48 37.5863 1263.74 37.5218 1263.87 37.6813L1265.23 39.3374L1268 42.7106L1269.36 44.3666C1269.62 44.6824 1269.97 44.918 1270.35 45.0461C1270.74 45.1741 1271.16 45.1892 1271.56 45.0897C1271.74 45.0432 1271.92 44.9707 1272.09 44.8732C1273.27 44.2111 1273.5 42.6114 1272.65 41.5682Z" fill="#FF536A"/>
</g>
</g>
</g>
<g clip-path="url(#clip19_16_19733)">
<rect x="1123.91" y="124.104" width="33.0625" height="33.0625" rx="16.53" transform="rotate(-14 1123.91 124.104)" fill="#F1F4FF"/>
<g clip-path="url(#clip20_16_19733)">
<g clip-path="url(#clip21_16_19733)">
<path d="M1155.99 116.107L1123.91 124.104L1131.91 156.182L1163.98 148.185L1155.99 116.107Z" fill="#F0F0F0"/>
<path d="M1145.2 141.156C1147.96 140.466 1149.65 137.662 1148.96 134.894C1148.27 132.126 1145.46 130.441 1142.7 131.131C1139.93 131.821 1138.24 134.625 1138.93 137.393C1139.62 140.162 1142.43 141.846 1145.2 141.156Z" fill="white"/>
<path d="M1140.23 139.734L1134.02 133.298C1133.52 135.042 1133.48 136.886 1133.92 138.645C1134.36 140.405 1135.25 142.018 1136.51 143.323C1137.77 144.627 1139.36 145.577 1141.1 146.077C1142.84 146.576 1144.69 146.608 1146.45 146.169L1148.91 137.569L1148.91 137.568C1148.66 138.44 1148.19 139.231 1147.54 139.861C1146.88 140.491 1146.08 140.939 1145.2 141.158C1144.32 141.378 1143.39 141.362 1142.52 141.112C1141.65 140.862 1140.86 140.386 1140.23 139.734Z" fill="#229342"/>
<path d="M1148.91 137.569L1146.45 146.169C1148.21 145.73 1149.82 144.836 1151.12 143.576C1152.43 142.317 1153.38 140.736 1153.88 138.992C1154.38 137.249 1154.41 135.405 1153.97 133.645C1153.53 131.886 1152.64 130.273 1151.38 128.968L1142.7 131.133L1142.7 131.134C1143.58 130.914 1144.5 130.929 1145.37 131.179C1146.24 131.429 1147.03 131.904 1147.66 132.556C1148.29 133.208 1148.74 134.015 1148.96 134.895C1149.18 135.775 1149.16 136.697 1148.91 137.569Z" fill="#FBC116"/>
<path d="M1144.94 140.113C1147.13 139.567 1148.46 137.347 1147.91 135.155C1147.37 132.964 1145.15 131.63 1142.96 132.177C1140.77 132.723 1139.43 134.943 1139.98 137.134C1140.52 139.326 1142.74 140.66 1144.94 140.113Z" fill="#1A73E8"/>
<path d="M1142.7 131.133L1151.38 128.968C1150.12 127.664 1148.54 126.714 1146.79 126.214C1145.05 125.714 1143.21 125.682 1141.45 126.12C1139.69 126.559 1138.07 127.454 1136.77 128.714C1135.46 129.974 1134.52 131.555 1134.02 133.298L1140.23 139.734L1140.23 139.734C1139.6 139.082 1139.15 138.275 1138.93 137.395C1138.71 136.515 1138.73 135.593 1138.98 134.721C1139.23 133.85 1139.71 133.059 1140.36 132.429C1141.01 131.799 1141.82 131.352 1142.7 131.133Z" fill="#E33B2E"/>
</g>
</g>
</g>
<rect x="1270.37" y="87.584" width="103.34" height="33.0625" rx="16.5312" transform="rotate(-14 1270.37 87.584)" fill="#95C7F3"/>
<rect x="1137.9" y="180.244" width="132.269" height="12.3984" rx="6.19921" transform="rotate(-14 1137.9 180.244)" fill="#F1F4FF"/>
<rect x="1143.9" y="204.304" width="99.2044" height="12.3984" rx="6.19921" transform="rotate(-14 1143.9 204.304)" fill="#F1F4FF"/>
<rect x="1152.9" y="240.394" width="120.943" height="62.0018" rx="12.4" transform="rotate(-14 1152.9 240.394)" fill="#F1F4FF"/>
<rect x="1282.28" y="208.134" width="120.94" height="62.0018" rx="12.4" transform="rotate(-14 1282.28 208.134)" fill="#F1F4FF"/>
<rect x="1170.9" y="312.584" width="120.943" height="62.0018" rx="12.4" transform="rotate(-14 1170.9 312.584)" fill="#F1F4FF"/>
<rect x="1300.28" y="280.324" width="120.943" height="61.9994" rx="12.4" transform="rotate(-14 1300.28 280.324)" fill="#F1F4FF"/>
</g>
<rect x="1103.27" y="111.698" width="288.335" height="288.343" rx="11.9" transform="rotate(-14 1103.27 111.698)" stroke="#F1F4FF"/>
</g>
<g filter="url(#filter3_dd_16_19733)">
<g clip-path="url(#clip22_16_19733)">
<rect x="44.5502" y="77.2476" width="330.679" height="165.335" rx="12.4" transform="rotate(24 44.5502 77.2476)" fill="white"/>
<g clip-path="url(#clip23_16_19733)">
<rect x="117.659" y="67.9102" width="67.2871" height="12.3913" rx="6.19564" transform="rotate(24 117.659 67.9102)" fill="#F1F4FF"/>
<g clip-path="url(#clip24_16_19733)">
<g clip-path="url(#clip25_16_19733)">
<path d="M238.913 110.583L208.712 97.1367L195.265 127.339L225.467 140.785L238.913 110.583Z" fill="#2A2A2A"/>
<path d="M225.55 120.886C226.504 119.832 226.979 118.403 226.828 116.991C226.609 114.823 225.002 113.058 222.869 112.593C222.446 111.248 221.429 110.15 220.127 109.57C218.13 108.681 215.81 109.181 214.342 110.786C212.943 110.486 211.493 110.782 210.333 111.637C208.576 112.925 207.841 115.18 208.506 117.25C207.542 118.327 207.1 119.744 207.251 121.156C207.469 123.324 209.067 125.111 211.209 125.554C211.655 126.909 212.639 128.019 213.941 128.599C215.939 129.488 218.259 128.988 219.727 127.383C221.126 127.683 222.575 127.387 223.736 126.532C225.493 125.244 226.237 122.967 225.55 120.886ZM214.471 127.409C213.663 127.049 213.02 126.44 212.643 125.654C212.676 125.642 212.753 125.65 212.786 125.637L217.328 125.159C217.558 125.126 217.75 124.997 217.85 124.772L220.118 119.678L221.255 121.232C221.277 121.242 221.267 121.265 221.257 121.287L219.379 125.507C218.562 127.402 216.356 128.249 214.471 127.409ZM208.543 121.032C208.449 120.156 208.674 119.289 209.158 118.563C209.171 118.595 209.206 118.638 209.241 118.68L211.925 122.376C212.054 122.568 212.279 122.668 212.508 122.636L218.069 122.046L217.279 123.819C217.269 123.842 217.259 123.864 217.237 123.854L212.639 124.335C210.604 124.558 208.766 123.068 208.543 121.032ZM211.118 112.712C211.832 112.196 212.69 111.96 213.56 111.998L211.642 116.307C211.552 116.509 211.574 116.761 211.704 116.953L214.986 121.48L213.07 121.676C213.048 121.666 213.015 121.679 213.025 121.656L210.306 117.918C209.065 116.236 209.456 113.909 211.118 112.712ZM222.387 121.226L219.105 116.699L221.021 116.503C221.043 116.513 221.076 116.5 221.066 116.523L223.785 120.261C225.003 121.933 224.613 124.26 222.951 125.457C222.237 125.973 221.379 126.209 220.518 126.149L222.427 121.862C222.539 121.67 222.517 121.418 222.387 121.226ZM224.91 119.606C224.898 119.574 224.863 119.531 224.828 119.489L222.144 115.793C222.014 115.6 221.79 115.501 221.56 115.533L216 116.123L216.789 114.35C216.799 114.327 216.809 114.305 216.832 114.315L221.429 113.834C223.487 113.621 225.302 115.101 225.515 117.159C225.62 118.013 225.395 118.88 224.91 119.606ZM213.95 118.491L212.814 116.936C212.791 116.926 212.801 116.904 212.811 116.882L214.69 112.662C215.529 110.777 217.735 109.93 219.62 110.77C220.428 111.129 221.071 111.738 221.447 112.524C221.415 112.537 221.36 112.539 221.305 112.542L216.763 113.02C216.533 113.053 216.341 113.182 216.241 113.407L213.973 118.501L213.95 118.491ZM215.58 117.065L218.065 116.8L219.53 118.824L218.521 121.091L216.036 121.356L214.571 119.332L215.58 117.065Z" fill="white"/>
</g>
</g>
<rect x="246.038" y="125.063" width="67.2878" height="12.4004" rx="6.20021" transform="rotate(24 246.038 125.063)" fill="#F1F4FF"/>
<g clip-path="url(#clip26_16_19733)">
<rect x="320.189" y="146.769" width="33.0597" height="33.06" rx="16.5298" transform="rotate(24 320.189 146.769)" fill="#F1F4FF"/>
<g clip-path="url(#clip27_16_19733)">
<path d="M350.391 160.216L320.189 146.769L306.743 176.971L336.945 190.418L350.391 160.216Z" fill="#2B44E7"/>
<path fill-rule="evenodd" clip-rule="evenodd" d="M338.202 172.354C338.135 172.5 338.062 172.635 337.881 172.82C337.658 173.055 337.392 173.243 337.099 173.373C336.805 173.504 336.49 173.574 336.172 173.579C335.853 173.584 335.538 173.525 335.245 173.405C334.952 173.284 334.686 173.106 334.463 172.879C334.241 172.652 334.066 172.381 333.948 172.082C333.831 171.784 333.775 171.464 333.781 171.141C333.785 170.973 333.818 170.796 333.867 170.622C334.939 167.828 333.645 164.651 330.877 163.419C328.109 162.186 324.665 163.431 323.393 166.289C322.12 169.148 323.407 172.497 326.267 173.771C328.771 174.885 331.649 174.041 333.182 171.897C333.258 172.256 333.38 172.605 333.574 172.918C333.689 173.103 333.82 173.292 333.936 173.411C334.227 173.708 334.575 173.942 334.958 174.099C335.342 174.257 335.754 174.334 336.17 174.327C336.247 174.326 336.339 174.314 336.441 174.296C336.764 174.239 337.082 174.143 337.38 174.006C334.713 178.36 329.164 180.168 324.369 178.033C319.155 175.711 316.809 169.603 319.129 164.391C321.45 159.179 327.559 156.835 332.774 159.158C337.99 161.48 340.201 167.244 338.202 172.354Z" fill="white"/>
</g>
</g>
</g>
<rect x="53.4302" y="100.388" width="297.61" height="130.283" rx="16.53" transform="rotate(24 53.4302 100.388)" fill="#F1F4FF"/>
</g>
<rect x="44.8036" y="77.9077" width="329.679" height="164.335" rx="11.9" transform="rotate(24 44.8036 77.9077)" stroke="#F1F4FF"/>
</g>
<g filter="url(#filter4_dd_16_19733)">
<g clip-path="url(#clip28_16_19733)">
<rect x="1182.15" y="-9.31152" width="206.674" height="206.673" rx="12.4" transform="rotate(4 1182.15 -9.31152)" fill="white"/>
<g clip-path="url(#clip29_16_19733)">
<rect x="1198.42" y="9.39844" width="171.606" height="33.0608" rx="16.53" transform="rotate(4 1198.42 9.39844)" fill="#F1F4FF"/>
<g clip-path="url(#clip30_16_19733)">
<g clip-path="url(#clip31_16_19733)">
<path d="M1300.5 16.5366L1267.52 14.2305L1265.22 47.2099L1298.2 49.5161L1300.5 16.5366Z" fill="#FF4A00"/>
<path d="M1285.44 32.0581C1285.38 32.8013 1285.2 33.5292 1284.89 34.2063C1284.17 34.4197 1283.43 34.5023 1282.68 34.4505L1282.68 34.4499C1281.91 34.3954 1281.19 34.2041 1280.53 33.9017C1280.31 33.1877 1280.23 32.4411 1280.28 31.6978L1280.28 31.6888C1280.34 30.9456 1280.52 30.218 1280.83 29.5409C1281.55 29.327 1282.29 29.2443 1283.04 29.2966L1283.04 29.2972C1283.79 29.3488 1284.52 29.5347 1285.19 29.8458C1285.41 30.5595 1285.49 31.3059 1285.44 32.049L1285.44 32.0581ZM1293.14 30.8664L1287.13 30.4458L1291.68 26.4893C1291.38 25.9969 1291.04 25.5306 1290.66 25.0951C1290.28 24.66 1289.86 24.2568 1289.42 23.8903L1284.87 27.8468L1285.29 21.8309C1284.73 21.6962 1284.16 21.6081 1283.59 21.5677L1283.58 21.567C1282.99 21.5265 1282.42 21.5361 1281.85 21.5907L1281.43 27.6066L1277.48 23.0552C1276.98 23.356 1276.52 23.6976 1276.08 24.0763L1276.08 24.0778C1275.65 24.4559 1275.24 24.8695 1274.88 25.3144L1278.83 29.8658L1272.82 29.4451C1272.82 29.4451 1272.6 30.565 1272.55 31.1492L1272.55 31.1563C1272.51 31.7405 1272.52 32.3165 1272.58 32.8805L1278.59 33.3011L1274.04 37.2575C1274.65 38.2435 1275.41 39.122 1276.3 39.8569L1280.85 35.9001L1280.43 41.9163C1280.99 42.0505 1281.56 42.1384 1282.13 42.179L1282.15 42.18C1282.72 42.2196 1283.3 42.2117 1283.87 42.1564L1284.29 36.1403L1288.24 40.692C1288.74 40.3909 1289.2 40.0495 1289.64 39.6713L1289.64 39.6704C1290.07 39.2917 1290.48 38.8776 1290.84 38.4324L1286.89 33.881L1292.9 34.3018C1293.04 33.7519 1293.12 33.1845 1293.17 32.6016L1293.17 32.5866C1293.21 32.0036 1293.2 31.4294 1293.14 30.8664Z" fill="white"/>
</g>
</g>
</g>
<rect x="1193.73" y="76.4336" width="132.26" height="12.4006" rx="6.20028" transform="rotate(4 1193.73 76.4336)" fill="#F1F4FF"/>
<rect x="1192" y="101.174" width="99.2044" height="12.3999" rx="6.19993" transform="rotate(4 1192 101.174)" fill="#F1F4FF"/>
<rect x="1188.76" y="147.599" width="171.606" height="33.0701" rx="16.535" transform="rotate(4 1188.76 147.599)" fill="#95C7F3"/>
</g>
<rect x="1182.61" y="-8.77786" width="205.674" height="205.673" rx="11.9" transform="rotate(4 1182.61 -8.77786)" stroke="#F1F4FF"/>
</g>
<g filter="url(#filter5_dd_16_19733)">
<g clip-path="url(#clip32_16_19733)">
<rect x="-9.83093" y="98.2358" width="330.674" height="103.339" rx="12.4" transform="rotate(-9.99999 -9.83093 98.2358)" fill="white"/>
<g clip-path="url(#clip33_16_19733)">
<rect x="45.5594" y="49.6079" width="66.3374" height="12.3978" rx="6.19892" transform="rotate(-9.99999 45.5594 49.6079)" fill="#F1F4FF"/>
<g clip-path="url(#clip34_16_19733)">
<g clip-path="url(#clip35_16_19733)">
<path d="M169.937 17.1855L137.379 22.9263L143.12 55.484L175.678 49.7432L169.937 17.1855Z" fill="#FF385C"/>
<path d="M165.925 41.035C165.97 42.1439 165.407 43.2097 164.459 43.8061C163.996 44.1024 163.466 44.2604 162.913 44.2933C162.382 44.3227 161.832 44.2478 161.235 44.0312C160.412 43.7465 159.548 43.2333 158.505 42.4294C159.582 40.5002 160.143 38.812 160.213 37.3827C160.245 36.7112 160.163 36.1243 160.005 35.5938C159.83 35.0879 159.558 34.6418 159.193 34.2767C158.382 33.4535 157.204 33.1029 155.996 33.3159C154.788 33.5289 153.804 34.2822 153.32 35.3123C153.102 35.7802 152.999 36.2924 153.007 36.8277C153.02 37.3839 153.147 37.9842 153.424 38.5798C153.978 39.899 155.108 41.3105 156.759 42.7585C156.074 43.8674 155.417 44.6488 154.741 45.1976C154.255 45.6055 153.763 45.864 153.254 46.018C152.702 46.1798 152.146 46.1919 151.634 46.0891C150.54 45.8525 149.646 45.0435 149.309 43.9863C149.155 43.4767 149.105 42.9488 149.21 42.329C149.236 42.1095 149.303 41.8832 149.363 41.6148C149.451 41.256 149.555 40.8723 149.659 40.4888L149.672 40.4437C150.562 37.087 151.545 33.6497 152.605 30.2848L152.646 30.1485C152.757 29.8071 152.865 29.4446 152.977 29.1027C153.084 28.74 153.217 28.3945 153.398 28.0832C153.747 27.5061 154.283 27.1326 154.928 27.0188C155.574 26.9049 156.205 27.0728 156.73 27.4956C157.007 27.7261 157.25 28.0056 157.475 28.3095C157.697 28.5926 157.922 28.8964 158.144 29.1791L158.228 29.2933C160.358 32.1171 162.458 35.011 164.442 37.8609L164.446 37.8815C164.671 38.1854 164.883 38.5349 165.108 38.8386C165.257 39.0703 165.397 39.2598 165.496 39.4573C165.758 39.9692 165.913 40.4792 165.925 41.035ZM157.443 41.5213C156.068 40.3036 155.104 39.0991 154.656 38.0189C154.468 37.558 154.373 37.1452 154.37 36.7593C154.353 36.4187 154.426 36.1049 154.549 35.8255C154.845 35.1939 155.449 34.7217 156.22 34.5858C156.99 34.4499 157.736 34.6623 158.214 35.1791C158.425 35.3999 158.601 35.6695 158.701 35.9955C158.83 36.3594 158.886 36.8004 158.863 37.2771C158.808 38.4249 158.314 39.8862 157.443 41.5213ZM166.644 38.7822C166.496 38.5507 166.344 38.2984 166.2 38.0877C165.967 37.7423 165.738 37.4174 165.533 37.1099L165.509 37.0929C163.521 34.2221 161.422 31.3283 159.247 28.4912L159.162 28.377C158.94 28.0939 158.715 27.7899 158.49 27.4862C158.215 27.1478 157.937 26.7892 157.538 26.4728C156.724 25.7573 155.686 25.4681 154.665 25.648C153.624 25.8317 152.768 26.455 152.22 27.3679C151.974 27.7976 151.814 28.2338 151.672 28.6456C151.564 29.0081 151.456 29.3708 151.345 29.7127L151.304 29.8483C150.252 33.255 149.248 36.6962 148.362 40.0736L148.348 40.1188C148.261 40.4776 148.157 40.8609 148.056 41.2654C147.993 41.513 147.933 41.7813 147.876 42.0703C147.741 42.8885 147.786 43.6322 148.023 44.3635C148.527 45.8851 149.8 47.0138 151.34 47.3433C151.922 47.4771 152.502 47.482 153.086 47.3792C153.252 47.3498 153.457 47.2922 153.62 47.2419C154.292 47.0372 154.96 46.6838 155.577 46.1667C156.347 45.5371 157.038 44.7067 157.778 43.5455C158.871 44.3836 159.825 44.9239 160.742 45.256C161.5 45.5307 162.248 45.6345 162.95 45.5967C163.12 45.5883 163.332 45.5724 163.499 45.543C164.082 45.4402 164.647 45.2334 165.127 44.9123C166.482 44.0723 167.267 42.5593 167.225 40.9777C167.263 40.2192 167.051 39.5054 166.644 38.7822Z" fill="white"/>
</g>
</g>
</g>
<rect x="10.4791" y="112.456" width="70.2672" height="70.2672" rx="35.1336" transform="rotate(-9.99999 10.4791 112.456)" fill="#F1F4FF"/>
<rect x="120.669" y="108.806" width="132.26" height="12.3978" rx="6.19892" transform="rotate(-9.99999 120.669 108.806)" fill="#F1F4FF"/>
<rect x="124.975" y="133.225" width="99.2044" height="12.3978" rx="6.19892" transform="rotate(-9.99999 124.975 133.225)" fill="#F1F4FF"/>
<g clip-path="url(#clip36_16_19733)">
<rect x="275.159" y="101.536" width="33.0621" height="33.0719" rx="16.53" transform="rotate(-9.99999 275.159 101.536)" fill="#F1F4FF"/>
<g clip-path="url(#clip37_16_19733)">
<g clip-path="url(#clip38_16_19733)">
<path d="M307.716 95.7953L275.158 101.536L280.899 134.094L313.457 128.353L307.716 95.7953Z" fill="#611F69"/>
<path d="M289.695 118.111C289.872 119.111 289.199 120.072 288.199 120.248C287.199 120.424 286.238 119.751 286.062 118.751C285.885 117.751 286.558 116.791 287.558 116.614L289.375 116.294L289.695 118.111Z" fill="#E01E5A"/>
<path d="M290.611 117.949C290.435 116.949 291.108 115.988 292.108 115.812C293.108 115.636 294.069 116.308 294.245 117.308L295.047 121.858C295.223 122.858 294.551 123.819 293.551 123.995C292.551 124.172 291.59 123.499 291.413 122.499L290.611 117.949Z" fill="#E01E5A"/>
<path d="M291.141 110.333C290.141 110.509 289.18 109.836 289.004 108.836C288.828 107.836 289.501 106.875 290.501 106.699C291.501 106.522 292.462 107.195 292.638 108.195L292.958 110.012L291.141 110.333Z" fill="#36C5F0"/>
<path d="M291.303 111.248C292.303 111.072 293.264 111.745 293.44 112.745C293.616 113.745 292.944 114.706 291.944 114.882L287.394 115.684C286.394 115.86 285.433 115.188 285.257 114.188C285.08 113.187 285.753 112.227 286.753 112.05L291.303 111.248Z" fill="#36C5F0"/>
<path d="M298.919 111.778C298.743 110.778 299.416 109.817 300.416 109.641C301.416 109.465 302.377 110.138 302.553 111.138C302.729 112.138 302.057 113.099 301.057 113.275L299.24 113.595L298.919 111.778Z" fill="#2EB67D"/>
<path d="M298.004 111.94C298.18 112.94 297.507 113.901 296.507 114.077C295.507 114.254 294.546 113.581 294.37 112.581L293.568 108.031C293.391 107.031 294.064 106.07 295.064 105.894C296.064 105.718 297.025 106.39 297.202 107.391L298.004 111.94Z" fill="#2EB67D"/>
<path d="M297.473 119.557C298.473 119.38 299.434 120.053 299.611 121.053C299.787 122.053 299.114 123.014 298.114 123.19C297.114 123.367 296.153 122.694 295.977 121.694L295.656 119.877L297.473 119.557Z" fill="#ECB22E"/>
<path d="M297.312 118.641C296.312 118.817 295.351 118.145 295.174 117.145C294.998 116.145 295.671 115.184 296.671 115.007L301.22 114.205C302.221 114.029 303.182 114.702 303.358 115.702C303.534 116.702 302.861 117.663 301.861 117.839L297.312 118.641Z" fill="#ECB22E"/>
</g>
</g>
</g>
</g>
<rect x="-9.2517" y="98.6414" width="329.674" height="102.339" rx="11.9" transform="rotate(-9.99999 -9.2517 98.6414)" stroke="#F1F4FF"/>
</g>
</g>
<defs>
<filter id="filter0_dd_16_19733" x="1040.23" y="439.089" width="351.593" height="167.182" filterUnits="userSpaceOnUse" color-interpolation-filters="sRGB">
<feFlood flood-opacity="0" result="BackgroundImageFix"/>
<feColorMatrix in="SourceAlpha" type="matrix" values="0 0 0 0 0 0 0 0 0 0 0 0 0 0 0 0 0 0 127 0" result="hardAlpha"/>
<feOffset dy="1"/>
<feGaussianBlur stdDeviation="1"/>
<feComposite in2="hardAlpha" operator="out"/>
<feColorMatrix type="matrix" values="0 0 0 0 0.0901961 0 0 0 0 0.0862745 0 0 0 0 0.0941176 0 0 0 0.04 0"/>
<feBlend mode="normal" in2="BackgroundImageFix" result="effect1_dropShadow_16_19733"/>
<feColorMatrix in="SourceAlpha" type="matrix" values="0 0 0 0 0 0 0 0 0 0 0 0 0 0 0 0 0 0 127 0" result="hardAlpha"/>
<feOffset dy="3"/>
<feGaussianBlur stdDeviation="2"/>
<feComposite in2="hardAlpha" operator="out"/>
<feColorMatrix type="matrix" values="0 0 0 0 0.0901961 0 0 0 0 0.0862745 0 0 0 0 0.0941176 0 0 0 0.04 0"/>
<feBlend mode="normal" in2="effect1_dropShadow_16_19733" result="effect2_dropShadow_16_19733"/>
<feBlend mode="normal" in="SourceGraphic" in2="effect2_dropShadow_16_19733" result="shape"/>
</filter>
<filter id="filter1_dd_16_19733" x="51.6521" y="104.221" width="220.628" height="378.939" filterUnits="userSpaceOnUse" color-interpolation-filters="sRGB">
<feFlood flood-opacity="0" result="BackgroundImageFix"/>
<feColorMatrix in="SourceAlpha" type="matrix" values="0 0 0 0 0 0 0 0 0 0 0 0 0 0 0 0 0 0 127 0" result="hardAlpha"/>
<feOffset dy="1"/>
<feGaussianBlur stdDeviation="1"/>
<feComposite in2="hardAlpha" operator="out"/>
<feColorMatrix type="matrix" values="0 0 0 0 0.0901961 0 0 0 0 0.0862745 0 0 0 0 0.0941176 0 0 0 0.04 0"/>
<feBlend mode="normal" in2="BackgroundImageFix" result="effect1_dropShadow_16_19733"/>
<feColorMatrix in="SourceAlpha" type="matrix" values="0 0 0 0 0 0 0 0 0 0 0 0 0 0 0 0 0 0 127 0" result="hardAlpha"/>
<feOffset dy="3"/>
<feGaussianBlur stdDeviation="2"/>
<feComposite in2="hardAlpha" operator="out"/>
<feColorMatrix type="matrix" values="0 0 0 0 0.0901961 0 0 0 0 0.0862745 0 0 0 0 0.0941176 0 0 0 0.04 0"/>
<feBlend mode="normal" in2="effect1_dropShadow_16_19733" result="effect2_dropShadow_16_19733"/>
<feBlend mode="normal" in="SourceGraphic" in2="effect2_dropShadow_16_19733" result="shape"/>
</filter>
<filter id="filter2_dd_16_19733" x="1098.66" y="40.3374" width="358.739" height="358.745" filterUnits="userSpaceOnUse" color-interpolation-filters="sRGB">
<feFlood flood-opacity="0" result="BackgroundImageFix"/>
<feColorMatrix in="SourceAlpha" type="matrix" values="0 0 0 0 0 0 0 0 0 0 0 0 0 0 0 0 0 0 127 0" result="hardAlpha"/>
<feOffset dy="1"/>
<feGaussianBlur stdDeviation="1"/>
<feComposite in2="hardAlpha" operator="out"/>
<feColorMatrix type="matrix" values="0 0 0 0 0.0901961 0 0 0 0 0.0862745 0 0 0 0 0.0941176 0 0 0 0.04 0"/>
<feBlend mode="normal" in2="BackgroundImageFix" result="effect1_dropShadow_16_19733"/>
<feColorMatrix in="SourceAlpha" type="matrix" values="0 0 0 0 0 0 0 0 0 0 0 0 0 0 0 0 0 0 127 0" result="hardAlpha"/>
<feOffset dy="3"/>
<feGaussianBlur stdDeviation="2"/>
<feComposite in2="hardAlpha" operator="out"/>
<feColorMatrix type="matrix" values="0 0 0 0 0.0901961 0 0 0 0 0.0862745 0 0 0 0 0.0941176 0 0 0 0.04 0"/>
<feBlend mode="normal" in2="effect1_dropShadow_16_19733" result="effect2_dropShadow_16_19733"/>
<feBlend mode="normal" in="SourceGraphic" in2="effect2_dropShadow_16_19733" result="shape"/>
</filter>
<filter id="filter3_dd_16_19733" x="-26.6976" y="76.2476" width="377.338" height="293.541" filterUnits="userSpaceOnUse" color-interpolation-filters="sRGB">
<feFlood flood-opacity="0" result="BackgroundImageFix"/>
<feColorMatrix in="SourceAlpha" type="matrix" values="0 0 0 0 0 0 0 0 0 0 0 0 0 0 0 0 0 0 127 0" result="hardAlpha"/>
<feOffset dy="1"/>
<feGaussianBlur stdDeviation="1"/>
<feComposite in2="hardAlpha" operator="out"/>
<feColorMatrix type="matrix" values="0 0 0 0 0.0901961 0 0 0 0 0.0862745 0 0 0 0 0.0941176 0 0 0 0.04 0"/>
<feBlend mode="normal" in2="BackgroundImageFix" result="effect1_dropShadow_16_19733"/>
<feColorMatrix in="SourceAlpha" type="matrix" values="0 0 0 0 0 0 0 0 0 0 0 0 0 0 0 0 0 0 127 0" result="hardAlpha"/>
<feOffset dy="3"/>
<feGaussianBlur stdDeviation="2"/>
<feComposite in2="hardAlpha" operator="out"/>
<feColorMatrix type="matrix" values="0 0 0 0 0.0901961 0 0 0 0 0.0862745 0 0 0 0 0.0941176 0 0 0 0.04 0"/>
<feBlend mode="normal" in2="effect1_dropShadow_16_19733" result="effect2_dropShadow_16_19733"/>
<feBlend mode="normal" in="SourceGraphic" in2="effect2_dropShadow_16_19733" result="shape"/>
</filter>
<filter id="filter4_dd_16_19733" x="1163.73" y="-10.3115" width="228.587" height="228.586" filterUnits="userSpaceOnUse" color-interpolation-filters="sRGB">
<feFlood flood-opacity="0" result="BackgroundImageFix"/>
<feColorMatrix in="SourceAlpha" type="matrix" values="0 0 0 0 0 0 0 0 0 0 0 0 0 0 0 0 0 0 127 0" result="hardAlpha"/>
<feOffset dy="1"/>
<feGaussianBlur stdDeviation="1"/>
<feComposite in2="hardAlpha" operator="out"/>
<feColorMatrix type="matrix" values="0 0 0 0 0.0901961 0 0 0 0 0.0862745 0 0 0 0 0.0941176 0 0 0 0.04 0"/>
<feBlend mode="normal" in2="BackgroundImageFix" result="effect1_dropShadow_16_19733"/>
<feColorMatrix in="SourceAlpha" type="matrix" values="0 0 0 0 0 0 0 0 0 0 0 0 0 0 0 0 0 0 127 0" result="hardAlpha"/>
<feOffset dy="3"/>
<feGaussianBlur stdDeviation="2"/>
<feComposite in2="hardAlpha" operator="out"/>
<feColorMatrix type="matrix" values="0 0 0 0 0.0901961 0 0 0 0 0.0862745 0 0 0 0 0.0941176 0 0 0 0.04 0"/>
<feBlend mode="normal" in2="effect1_dropShadow_16_19733" result="effect2_dropShadow_16_19733"/>
<feBlend mode="normal" in="SourceGraphic" in2="effect2_dropShadow_16_19733" result="shape"/>
</filter>
<filter id="filter5_dd_16_19733" x="-13.8309" y="39.8149" width="351.594" height="167.19" filterUnits="userSpaceOnUse" color-interpolation-filters="sRGB">
<feFlood flood-opacity="0" result="BackgroundImageFix"/>
<feColorMatrix in="SourceAlpha" type="matrix" values="0 0 0 0 0 0 0 0 0 0 0 0 0 0 0 0 0 0 127 0" result="hardAlpha"/>
<feOffset dy="1"/>
<feGaussianBlur stdDeviation="1"/>
<feComposite in2="hardAlpha" operator="out"/>
<feColorMatrix type="matrix" values="0 0 0 0 0.0901961 0 0 0 0 0.0862745 0 0 0 0 0.0941176 0 0 0 0.04 0"/>
<feBlend mode="normal" in2="BackgroundImageFix" result="effect1_dropShadow_16_19733"/>
<feColorMatrix in="SourceAlpha" type="matrix" values="0 0 0 0 0 0 0 0 0 0 0 0 0 0 0 0 0 0 127 0" result="hardAlpha"/>
<feOffset dy="3"/>
<feGaussianBlur stdDeviation="2"/>
<feComposite in2="hardAlpha" operator="out"/>
<feColorMatrix type="matrix" values="0 0 0 0 0.0901961 0 0 0 0 0.0862745 0 0 0 0 0.0941176 0 0 0 0.04 0"/>
<feBlend mode="normal" in2="effect1_dropShadow_16_19733" result="effect2_dropShadow_16_19733"/>
<feBlend mode="normal" in="SourceGraphic" in2="effect2_dropShadow_16_19733" result="shape"/>
</filter>
<clipPath id="clip0_16_19733">
<rect width="1440" height="665.5" fill="white" transform="translate(0 0.129883)"/>
</clipPath>
<clipPath id="clip1_16_19733">
<rect x="1062.17" y="440.089" width="330.674" height="103.331" rx="12.4" transform="rotate(9.99999 1062.17 440.089)" fill="white"/>
</clipPath>
<clipPath id="clip2_16_19733">
<rect width="328.683" height="66.134" fill="white" transform="translate(1074.46 376.119) rotate(9.99999)"/>
</clipPath>
<clipPath id="clip3_16_19733">
<rect x="1226.26" y="419.669" width="33.0621" height="33.0621" rx="16.53" transform="rotate(9.99999 1226.26 419.669)" fill="white"/>
</clipPath>
<clipPath id="clip4_16_19733">
<rect width="33.06" height="33.06" fill="white" transform="translate(1226.26 419.669) rotate(9.99999)"/>
</clipPath>
<clipPath id="clip5_16_19733">
<rect x="1328.84" y="540.66" width="33.0638" height="33.0621" rx="16.53" transform="rotate(9.99999 1328.84 540.66)" fill="white"/>
</clipPath>
<clipPath id="clip6_16_19733">
<rect width="33.06" height="33.0621" fill="white" transform="translate(1328.84 540.66) rotate(9.99999)"/>
</clipPath>
<clipPath id="clip7_16_19733">
<rect width="33.06" height="33.06" fill="white" transform="translate(1328.84 540.659) rotate(9.99999)"/>
</clipPath>
<clipPath id="clip8_16_19733">
<rect x="104.55" y="105.221" width="165.339" height="351.348" rx="12.4" transform="rotate(8 104.55 105.221)" fill="white"/>
</clipPath>
<clipPath id="clip9_16_19733">
<rect width="163.329" height="66.1344" fill="white" transform="translate(114.61 40.8613) rotate(8)"/>
</clipPath>
<clipPath id="clip10_16_19733">
<rect x="267.83" y="79.0913" width="33.0616" height="33.0616" rx="16.53" transform="rotate(8 267.83 79.0913)" fill="white"/>
</clipPath>
<clipPath id="clip11_16_19733">
<rect width="33.06" height="33.06" fill="white" transform="translate(267.83 79.0913) rotate(8)"/>
</clipPath>
<clipPath id="clip12_16_19733">
<rect x="119.47" y="125.021" width="130.277" height="33.0616" rx="16.53" transform="rotate(8 119.47 125.021)" fill="white"/>
</clipPath>
<clipPath id="clip13_16_19733">
<rect width="33.06" height="33.0616" fill="white" transform="translate(167.605 131.786) rotate(8)"/>
</clipPath>
<clipPath id="clip14_16_19733">
<rect width="33.06" height="33.06" fill="white" transform="translate(167.604 131.786) rotate(8)"/>
</clipPath>
<clipPath id="clip15_16_19733">
<rect x="1102.66" y="111.334" width="289.335" height="289.343" rx="12.4" transform="rotate(-14 1102.66 111.334)" fill="white"/>
</clipPath>
<clipPath id="clip16_16_19733">
<rect width="287.344" height="66.1346" fill="white" transform="translate(1087.87 47.894) rotate(-14)"/>
</clipPath>
<clipPath id="clip17_16_19733">
<rect x="1244.26" y="25.9438" width="33.0625" height="33.0625" rx="16.53" transform="rotate(-14 1244.26 25.9438)" fill="white"/>
</clipPath>
<clipPath id="clip18_16_19733">
<rect width="33.06" height="33.06" fill="white" transform="translate(1244.26 25.9438) rotate(-14)"/>
</clipPath>
<clipPath id="clip19_16_19733">
<rect x="1123.91" y="124.104" width="33.0625" height="33.0625" rx="16.53" transform="rotate(-14 1123.91 124.104)" fill="white"/>
</clipPath>
<clipPath id="clip20_16_19733">
<rect width="33.06" height="33.0625" fill="white" transform="translate(1123.91 124.104) rotate(-14)"/>
</clipPath>
<clipPath id="clip21_16_19733">
<rect width="33.06" height="33.06" fill="white" transform="translate(1123.91 124.104) rotate(-14)"/>
</clipPath>
<clipPath id="clip22_16_19733">
<rect x="44.5502" y="77.2476" width="330.679" height="165.335" rx="12.4" transform="rotate(24 44.5502 77.2476)" fill="white"/>
</clipPath>
<clipPath id="clip23_16_19733">
<rect width="328.687" height="66.1376" fill="white" transform="translate(71.9502 18.1475) rotate(24)"/>
</clipPath>
<clipPath id="clip24_16_19733">
<rect x="208.714" y="97.1377" width="33.0556" height="33.06" rx="16.5278" transform="rotate(24 208.714 97.1377)" fill="white"/>
</clipPath>
<clipPath id="clip25_16_19733">
<rect width="33.06" height="33.06" fill="white" transform="translate(208.712 97.1367) rotate(24)"/>
</clipPath>
<clipPath id="clip26_16_19733">
<rect x="320.189" y="146.769" width="33.0597" height="33.06" rx="16.5298" transform="rotate(24 320.189 146.769)" fill="white"/>
</clipPath>
<clipPath id="clip27_16_19733">
<rect width="33.06" height="33.06" fill="white" transform="translate(320.189 146.769) rotate(24)"/>
</clipPath>
<clipPath id="clip28_16_19733">
<rect x="1182.15" y="-9.31152" width="206.674" height="206.673" rx="12.4" transform="rotate(4 1182.15 -9.31152)" fill="white"/>
</clipPath>
<clipPath id="clip29_16_19733">
<rect x="1198.42" y="9.39844" width="171.606" height="33.0608" rx="16.53" transform="rotate(4 1198.42 9.39844)" fill="white"/>
</clipPath>
<clipPath id="clip30_16_19733">
<rect width="33.06" height="33.0608" fill="white" transform="translate(1267.52 14.2305) rotate(4)"/>
</clipPath>
<clipPath id="clip31_16_19733">
<rect width="33.06" height="33.06" fill="white" transform="translate(1267.52 14.2305) rotate(4)"/>
</clipPath>
<clipPath id="clip32_16_19733">
<rect x="-9.83093" y="98.2358" width="330.674" height="103.339" rx="12.4" transform="rotate(-9.99999 -9.83093 98.2358)" fill="white"/>
</clipPath>
<clipPath id="clip33_16_19733">
<rect width="328.683" height="66.1357" fill="white" transform="translate(-20.1609 33.916) rotate(-9.99999)"/>
</clipPath>
<clipPath id="clip34_16_19733">
<rect x="137.379" y="22.9263" width="33.0621" height="33.0621" rx="16.53" transform="rotate(-9.99999 137.379 22.9263)" fill="white"/>
</clipPath>
<clipPath id="clip35_16_19733">
<rect width="33.06" height="33.06" fill="white" transform="translate(137.379 22.9263) rotate(-9.99999)"/>
</clipPath>
<clipPath id="clip36_16_19733">
<rect x="275.159" y="101.536" width="33.0621" height="33.0719" rx="16.53" transform="rotate(-9.99999 275.159 101.536)" fill="white"/>
</clipPath>
<clipPath id="clip37_16_19733">
<rect width="33.06" height="33.0719" fill="white" transform="translate(275.159 101.536) rotate(-9.99999)"/>
</clipPath>
<clipPath id="clip38_16_19733">
<rect width="33.06" height="33.06" fill="white" transform="translate(275.158 101.536) rotate(-9.99999)"/>
</clipPath>
</defs>
</svg>
